<mxfile host="app.diagrams.net" modified="2023-07-06T18:57:13.765Z" agent="Mozilla/5.0 (Windows NT 10.0; Win64; x64) AppleWebKit/537.36 (KHTML, like Gecko) Chrome/116.0.0.0 Safari/537.36" etag="5VNgLgpubcKXH_3eNSrl" version="21.5.2" type="github">
  <diagram id="C5RBs43oDa-KdzZeNtuy" name="Page-1">
    <mxGraphModel dx="794" dy="477" grid="1" gridSize="10" guides="1" tooltips="1" connect="1" arrows="1" fold="1" page="1" pageScale="1" pageWidth="827" pageHeight="1169" math="0" shadow="0">
      <root>
        <mxCell id="WIyWlLk6GJQsqaUBKTNV-0" />
        <mxCell id="WIyWlLk6GJQsqaUBKTNV-1" parent="WIyWlLk6GJQsqaUBKTNV-0" />
        <mxCell id="9wHplCKHJmTgAgDDms6--33" style="edgeStyle=orthogonalEdgeStyle;rounded=0;orthogonalLoop=1;jettySize=auto;html=1;exitX=0.5;exitY=1;exitDx=0;exitDy=0;exitPerimeter=0;entryX=0.5;entryY=0;entryDx=0;entryDy=0;" edge="1" parent="WIyWlLk6GJQsqaUBKTNV-1" source="9wHplCKHJmTgAgDDms6--1" target="9wHplCKHJmTgAgDDms6--8">
          <mxGeometry relative="1" as="geometry" />
        </mxCell>
        <mxCell id="9wHplCKHJmTgAgDDms6--1" value="INICIO" style="strokeWidth=2;html=1;shape=mxgraph.flowchart.start_1;whiteSpace=wrap;labelBackgroundColor=none;" vertex="1" parent="WIyWlLk6GJQsqaUBKTNV-1">
          <mxGeometry x="330" y="70" width="80" height="60" as="geometry" />
        </mxCell>
        <mxCell id="9wHplCKHJmTgAgDDms6--2" value="REGISTRO DE USUARIOS (backend)" style="text;html=1;strokeColor=none;fillColor=none;align=center;verticalAlign=middle;whiteSpace=wrap;rounded=0;" vertex="1" parent="WIyWlLk6GJQsqaUBKTNV-1">
          <mxGeometry x="280" y="30" width="210" height="30" as="geometry" />
        </mxCell>
        <mxCell id="9wHplCKHJmTgAgDDms6--25" style="edgeStyle=orthogonalEdgeStyle;rounded=0;orthogonalLoop=1;jettySize=auto;html=1;entryX=1;entryY=0.5;entryDx=0;entryDy=0;" edge="1" parent="WIyWlLk6GJQsqaUBKTNV-1" source="9wHplCKHJmTgAgDDms6--8" target="9wHplCKHJmTgAgDDms6--10">
          <mxGeometry relative="1" as="geometry" />
        </mxCell>
        <mxCell id="9wHplCKHJmTgAgDDms6--8" value="USER.JS" style="rounded=0;whiteSpace=wrap;html=1;" vertex="1" parent="WIyWlLk6GJQsqaUBKTNV-1">
          <mxGeometry x="310" y="170" width="120" height="60" as="geometry" />
        </mxCell>
        <mxCell id="9wHplCKHJmTgAgDDms6--27" style="edgeStyle=orthogonalEdgeStyle;rounded=0;orthogonalLoop=1;jettySize=auto;html=1;exitX=0.5;exitY=1;exitDx=0;exitDy=0;entryX=0.5;entryY=0;entryDx=0;entryDy=0;" edge="1" parent="WIyWlLk6GJQsqaUBKTNV-1" source="9wHplCKHJmTgAgDDms6--10" target="9wHplCKHJmTgAgDDms6--18">
          <mxGeometry relative="1" as="geometry" />
        </mxCell>
        <mxCell id="9wHplCKHJmTgAgDDms6--10" value="ALERT.JS" style="rounded=1;whiteSpace=wrap;html=1;" vertex="1" parent="WIyWlLk6GJQsqaUBKTNV-1">
          <mxGeometry x="130" y="170" width="120" height="60" as="geometry" />
        </mxCell>
        <mxCell id="9wHplCKHJmTgAgDDms6--39" style="edgeStyle=orthogonalEdgeStyle;rounded=0;orthogonalLoop=1;jettySize=auto;html=1;exitX=0.5;exitY=1;exitDx=0;exitDy=0;" edge="1" parent="WIyWlLk6GJQsqaUBKTNV-1" source="9wHplCKHJmTgAgDDms6--18" target="9wHplCKHJmTgAgDDms6--28">
          <mxGeometry relative="1" as="geometry" />
        </mxCell>
        <mxCell id="9wHplCKHJmTgAgDDms6--18" value="/api/session/register" style="whiteSpace=wrap;html=1;" vertex="1" parent="WIyWlLk6GJQsqaUBKTNV-1">
          <mxGeometry x="130" y="300" width="120" height="60" as="geometry" />
        </mxCell>
        <mxCell id="9wHplCKHJmTgAgDDms6--31" value="" style="edgeStyle=orthogonalEdgeStyle;rounded=0;orthogonalLoop=1;jettySize=auto;html=1;" edge="1" parent="WIyWlLk6GJQsqaUBKTNV-1" source="9wHplCKHJmTgAgDDms6--28" target="9wHplCKHJmTgAgDDms6--30">
          <mxGeometry relative="1" as="geometry" />
        </mxCell>
        <mxCell id="9wHplCKHJmTgAgDDms6--28" value="passportCall.js" style="whiteSpace=wrap;html=1;" vertex="1" parent="WIyWlLk6GJQsqaUBKTNV-1">
          <mxGeometry x="130" y="430" width="120" height="60" as="geometry" />
        </mxCell>
        <mxCell id="9wHplCKHJmTgAgDDms6--53" style="edgeStyle=orthogonalEdgeStyle;rounded=0;orthogonalLoop=1;jettySize=auto;html=1;entryX=0.5;entryY=0;entryDx=0;entryDy=0;entryPerimeter=0;" edge="1" parent="WIyWlLk6GJQsqaUBKTNV-1" source="9wHplCKHJmTgAgDDms6--30" target="9wHplCKHJmTgAgDDms6--50">
          <mxGeometry relative="1" as="geometry" />
        </mxCell>
        <mxCell id="9wHplCKHJmTgAgDDms6--30" value="passport.config.js" style="whiteSpace=wrap;html=1;" vertex="1" parent="WIyWlLk6GJQsqaUBKTNV-1">
          <mxGeometry x="130" y="570" width="120" height="60" as="geometry" />
        </mxCell>
        <mxCell id="9wHplCKHJmTgAgDDms6--32" value="Viaja el usuario" style="text;html=1;strokeColor=none;fillColor=none;align=center;verticalAlign=middle;whiteSpace=wrap;rounded=0;" vertex="1" parent="WIyWlLk6GJQsqaUBKTNV-1">
          <mxGeometry x="180" y="250" width="130" height="30" as="geometry" />
        </mxCell>
        <mxCell id="9wHplCKHJmTgAgDDms6--34" value="Modelo" style="text;html=1;align=center;verticalAlign=middle;resizable=0;points=[];autosize=1;strokeColor=none;fillColor=none;" vertex="1" parent="WIyWlLk6GJQsqaUBKTNV-1">
          <mxGeometry x="380" y="140" width="60" height="30" as="geometry" />
        </mxCell>
        <mxCell id="9wHplCKHJmTgAgDDms6--42" value="Llama con estrategia Register" style="text;html=1;align=center;verticalAlign=middle;resizable=0;points=[];autosize=1;strokeColor=none;fillColor=none;" vertex="1" parent="WIyWlLk6GJQsqaUBKTNV-1">
          <mxGeometry x="200" y="520" width="180" height="30" as="geometry" />
        </mxCell>
        <mxCell id="9wHplCKHJmTgAgDDms6--60" style="edgeStyle=orthogonalEdgeStyle;rounded=0;orthogonalLoop=1;jettySize=auto;html=1;exitX=0.5;exitY=0;exitDx=0;exitDy=0;exitPerimeter=0;entryX=1;entryY=0.5;entryDx=0;entryDy=0;" edge="1" parent="WIyWlLk6GJQsqaUBKTNV-1" source="9wHplCKHJmTgAgDDms6--43" target="9wHplCKHJmTgAgDDms6--30">
          <mxGeometry relative="1" as="geometry" />
        </mxCell>
        <mxCell id="9wHplCKHJmTgAgDDms6--43" value="Usuario creado" style="strokeWidth=2;html=1;shape=mxgraph.flowchart.database;whiteSpace=wrap;" vertex="1" parent="WIyWlLk6GJQsqaUBKTNV-1">
          <mxGeometry x="330" y="693" width="70" height="70" as="geometry" />
        </mxCell>
        <mxCell id="9wHplCKHJmTgAgDDms6--47" value="NO" style="text;html=1;align=center;verticalAlign=middle;resizable=0;points=[];autosize=1;strokeColor=none;fillColor=none;" vertex="1" parent="WIyWlLk6GJQsqaUBKTNV-1">
          <mxGeometry x="260" y="693" width="40" height="30" as="geometry" />
        </mxCell>
        <mxCell id="9wHplCKHJmTgAgDDms6--48" value="llama como midd" style="text;html=1;align=center;verticalAlign=middle;resizable=0;points=[];autosize=1;strokeColor=none;fillColor=none;" vertex="1" parent="WIyWlLk6GJQsqaUBKTNV-1">
          <mxGeometry x="190" y="380" width="110" height="30" as="geometry" />
        </mxCell>
        <mxCell id="9wHplCKHJmTgAgDDms6--51" style="edgeStyle=orthogonalEdgeStyle;rounded=0;orthogonalLoop=1;jettySize=auto;html=1;" edge="1" parent="WIyWlLk6GJQsqaUBKTNV-1" source="9wHplCKHJmTgAgDDms6--50" target="9wHplCKHJmTgAgDDms6--43">
          <mxGeometry relative="1" as="geometry" />
        </mxCell>
        <mxCell id="9wHplCKHJmTgAgDDms6--56" style="edgeStyle=orthogonalEdgeStyle;rounded=0;orthogonalLoop=1;jettySize=auto;html=1;exitX=0;exitY=0.5;exitDx=0;exitDy=0;exitPerimeter=0;entryX=0;entryY=0.5;entryDx=0;entryDy=0;" edge="1" parent="WIyWlLk6GJQsqaUBKTNV-1" source="9wHplCKHJmTgAgDDms6--50" target="9wHplCKHJmTgAgDDms6--10">
          <mxGeometry relative="1" as="geometry" />
        </mxCell>
        <mxCell id="9wHplCKHJmTgAgDDms6--50" value="hubo error?" style="strokeWidth=2;html=1;shape=mxgraph.flowchart.decision;whiteSpace=wrap;" vertex="1" parent="WIyWlLk6GJQsqaUBKTNV-1">
          <mxGeometry x="140" y="678" width="100" height="100" as="geometry" />
        </mxCell>
        <mxCell id="9wHplCKHJmTgAgDDms6--55" value="SI / RESPONSE&lt;br&gt;ERROR&lt;br&gt;" style="text;html=1;align=center;verticalAlign=middle;resizable=0;points=[];autosize=1;strokeColor=none;fillColor=none;" vertex="1" parent="WIyWlLk6GJQsqaUBKTNV-1">
          <mxGeometry y="375" width="110" height="40" as="geometry" />
        </mxCell>
      </root>
    </mxGraphModel>
  </diagram>
</mxfile>
